<svg width="201" height="31" viewBox="0 0 201 31" fill="none" xmlns="http://www.w3.org/2000/svg">
<g clip-path="url(#clip0_3098_16561)">
<path d="M83.2658 21.6706V10.7058H80.7242V9.24191H83.2658V5.03449H84.9507V9.24191H88.0664V10.7058H84.9507V21.4156C84.9507 22.6575 85.459 23.5216 86.5415 23.5216C87.271 23.5216 87.9064 23.1722 88.2594 22.7897L88.8947 24.0647C88.2923 24.6361 87.5581 25.0233 86.2873 25.0233C84.2541 25.0233 83.2705 23.7814 83.2705 21.6753L83.2658 21.6706Z" fill="#58595B"/>
<path d="M90.1608 16.9201C90.1608 12.4246 93.0506 8.8547 97.5312 8.8547C102.012 8.8547 104.934 12.4246 104.934 16.9201C104.934 21.4156 102.073 25.0186 97.5312 25.0186C92.9894 25.0186 90.1608 21.4156 90.1608 16.9201ZM103.155 16.9201C103.155 13.5107 101.155 10.3516 97.5312 10.3516C93.9071 10.3516 91.9398 13.506 91.9398 16.9201C91.9398 20.3342 93.973 23.5169 97.5312 23.5169C101.089 23.5169 103.155 20.3625 103.155 16.9201Z" fill="#58595B"/>
<path d="M110.206 22.1475V30.5009H108.554V9.23719H110.206V11.6596C111.284 10.0966 113.256 8.8547 115.543 8.8547C119.642 8.8547 122.405 11.9807 122.405 16.9201C122.405 21.8594 119.642 25.0186 115.543 25.0186C113.383 25.0186 111.444 23.9041 110.206 22.1475ZM120.626 16.9201C120.626 13.1896 118.687 10.3516 115.256 10.3516C113.129 10.3516 111.095 11.6266 110.206 13.0952V20.712C111.095 22.1758 113.129 23.5169 115.256 23.5169C118.687 23.5169 120.626 20.6459 120.626 16.9201Z" fill="#58595B"/>
<path d="M125.045 16.9201C125.045 12.4246 128.001 8.8547 132.51 8.8547C135.179 8.8547 136.703 9.90773 137.941 11.4708L136.798 12.4907C135.687 10.9608 134.289 10.3563 132.604 10.3563C129.013 10.3563 126.82 13.2274 126.82 16.9248C126.82 20.6223 129.013 23.5216 132.604 23.5216C134.289 23.5216 135.687 22.8842 136.798 21.3542L137.941 22.3742C136.703 23.9702 135.179 25.0186 132.51 25.0186C127.996 25.0186 125.045 21.4156 125.045 16.9201Z" fill="#58595B"/>
<path d="M140.102 16.9201C140.102 12.4246 142.991 8.8547 147.472 8.8547C151.952 8.8547 154.875 12.4246 154.875 16.9201C154.875 21.4156 152.014 25.0186 147.472 25.0186C142.93 25.0186 140.102 21.4156 140.102 16.9201ZM153.096 16.9201C153.096 13.5107 151.096 10.3516 147.472 10.3516C143.848 10.3516 141.881 13.506 141.881 16.9201C141.881 20.3342 143.914 23.5169 147.472 23.5169C151.03 23.5169 153.096 20.3625 153.096 16.9201Z" fill="#58595B"/>
<path d="M169.804 24.6361V22.1806C168.726 23.7766 166.754 25.0185 164.467 25.0185C160.401 25.0185 157.605 21.8925 157.605 16.9532C157.605 12.0138 160.401 8.85469 164.467 8.85469C166.66 8.85469 168.566 9.96912 169.804 11.7258V3.3723H171.489V24.6361H169.804ZM169.804 20.7781V13.1613C168.915 11.6644 166.914 10.3563 164.754 10.3563C161.356 10.3563 159.384 13.2274 159.384 16.9532C159.384 20.6789 161.356 23.5216 164.754 23.5216C166.914 23.5216 168.915 22.2467 169.804 20.7781Z" fill="#58595B"/>
<path d="M175.108 16.9201C175.108 12.4577 178.252 8.8547 182.512 8.8547C187.181 8.8547 189.755 12.5852 189.755 17.0145V17.4631H176.92C177.08 20.8111 179.302 23.583 182.926 23.583C184.865 23.583 186.644 22.8511 187.948 21.4486L188.804 22.53C187.279 24.1261 185.34 25.0186 182.799 25.0186C178.318 25.0186 175.108 21.6706 175.108 16.9201ZM182.479 10.2902C178.855 10.2902 177.048 13.4777 176.92 16.1551H188.07C188.037 13.5391 186.324 10.2902 182.479 10.2902Z" fill="#58595B"/>
<path d="M193.379 24.6361V9.23719H195.031V11.8816C196.335 10.158 198.081 8.91608 200.208 8.91608V10.7341C199.921 10.668 199.7 10.668 199.38 10.668C197.822 10.668 195.728 12.0705 195.026 13.4116V24.6313H193.374L193.379 24.6361Z" fill="#58595B"/>
<path d="M28.7551 11.4424C28.8963 11.4849 29.0422 11.5274 29.1787 11.5746C29.0375 11.5321 28.8963 11.4849 28.7551 11.4424Z" fill="#2BA9E0"/>
<path d="M31.3672 12.2877C31.4943 12.3302 31.6213 12.3774 31.7437 12.4199C31.6166 12.3774 31.4943 12.3302 31.3672 12.2877Z" fill="#2BA9E0"/>
<path d="M34.7888 13.5626C34.7888 13.5626 34.7794 13.5626 34.7747 13.5579C34.7747 13.5579 34.7841 13.5579 34.7888 13.5626H34.7982C35.0382 13.6618 35.2924 13.761 35.5559 13.8648C35.5559 13.8648 35.5559 13.8648 35.5606 13.8648C35.5795 13.8696 35.5936 13.879 35.6124 13.8837C35.6171 13.8837 35.6265 13.8885 35.6312 13.8932C35.3394 13.7751 35.057 13.6665 34.7888 13.5579V13.5626Z" fill="#2BA9E0"/>
<path d="M26.3124 10.7246C26.9195 10.8946 27.522 11.0693 28.115 11.2441C27.522 11.0646 26.9195 10.8946 26.3124 10.7246Z" fill="#2BA9E0"/>
<path d="M32.4403 12.6654C32.5674 12.7126 32.6945 12.7551 32.8215 12.8024C32.6945 12.7551 32.5674 12.7079 32.4403 12.6654Z" fill="#2BA9E0"/>
<path d="M9.32193 25.4057C10.8139 18.9553 14.2732 13.2557 18.6926 8.98216C10.1597 7.44747 2.11627 7.57969 0.497234 11.8674C-0.64174 14.8895 1.68798 19.4511 5.69321 23.956C6.78983 25.1885 8.05117 25.6418 9.25133 25.6891L9.32193 25.401V25.4057Z" fill="#2BA9E0"/>
<path d="M23.4979 9.9927C23.6721 10.0352 23.8462 10.0777 24.0156 10.1202C23.8415 10.0777 23.6721 10.0352 23.4979 9.9927Z" fill="#2BA9E0"/>
<path d="M20.9564 9.4166C21.6012 9.55354 22.2507 9.6952 22.8908 9.84631C22.246 9.6952 21.6012 9.54882 20.9564 9.4166Z" fill="#2BA9E0"/>
<path d="M72.7233 11.8674C71.109 7.57969 63.0656 7.44747 54.528 8.97744C58.9474 13.2557 62.4066 18.9506 63.8986 25.401L63.9692 25.6891C65.1741 25.6371 66.4307 25.1885 67.5273 23.956C71.5326 19.4559 73.8623 14.8943 72.7233 11.8674Z" fill="#F69322"/>
<path d="M36.6102 14.2851C31.0706 15.1634 21.6482 19.9517 13.9107 24.2866C13.3036 24.6266 11.3645 25.7741 9.25598 25.6843L9.32658 25.3963C10.8185 18.9459 14.2825 13.2462 18.7019 8.96799C19.4126 9.09549 20.1327 9.23716 20.8481 9.38354C20.8528 9.38354 20.8575 9.38354 20.8669 9.38354C20.8669 9.38354 20.8763 9.38354 20.881 9.38354C21.5964 9.53465 22.3071 9.69048 23.0178 9.86048C23.0178 9.86048 23.0272 9.86048 23.0319 9.86048C23.3849 9.94548 23.7379 10.0305 24.0909 10.1202C24.1003 10.1202 24.1097 10.1202 24.1191 10.1249C24.8157 10.2996 25.5028 10.4791 26.1853 10.668C26.2041 10.6727 26.2276 10.6774 26.2465 10.6869C26.2512 10.6869 26.2559 10.6869 26.2606 10.6869C26.9289 10.871 27.5925 11.0646 28.242 11.2582C28.2514 11.2582 28.2608 11.263 28.2703 11.2677C28.2844 11.2677 28.2985 11.2771 28.3173 11.2818C28.6327 11.3763 28.9433 11.4754 29.2539 11.5699C29.268 11.5699 29.2775 11.5793 29.2916 11.5841C29.3151 11.5935 29.3386 11.5982 29.3622 11.6077C29.9787 11.8013 30.5812 11.9996 31.1695 12.1979C31.1883 12.2027 31.2071 12.2121 31.2307 12.2168C31.2589 12.2263 31.2871 12.2357 31.3154 12.2452C31.5978 12.3443 31.8801 12.4388 32.1578 12.5379C32.1908 12.5474 32.219 12.5615 32.252 12.571C32.5061 12.6607 32.7603 12.7551 33.0097 12.8449C33.0427 12.859 33.0803 12.8685 33.1133 12.8826C33.118 12.8826 33.1274 12.8826 33.1321 12.8874C33.3909 12.9818 33.6498 13.081 33.8992 13.1801C33.9181 13.1896 33.9369 13.1943 33.9557 13.2037C33.9887 13.2179 34.0216 13.2274 34.0546 13.2415C34.3087 13.3407 34.5629 13.4399 34.8076 13.539H34.817C35.057 13.6382 35.3112 13.7373 35.5748 13.8412C35.5748 13.8412 35.5748 13.8412 35.5795 13.8412C35.5983 13.846 35.6124 13.8554 35.6312 13.8601" fill="#0E73BA"/>
<path d="M36.6103 14.2851C42.1498 15.1634 51.5722 19.9517 59.3097 24.2866C59.9169 24.6266 61.8559 25.7741 63.9645 25.6843L63.8939 25.3963C62.4019 18.9459 58.9379 13.2462 54.5185 8.96799C53.8078 9.09549 53.0877 9.23716 52.3723 9.38354C52.3676 9.38354 52.3629 9.38354 52.3535 9.38354C52.3535 9.38354 52.3441 9.38354 52.3394 9.38354C51.624 9.53465 50.9133 9.69048 50.2026 9.86048C50.2026 9.86048 50.1932 9.86048 50.1885 9.86048C49.8355 9.94548 49.4825 10.0305 49.1296 10.1202C49.1201 10.1202 49.1107 10.1202 49.1013 10.1249C48.4048 10.2996 47.7176 10.4791 47.0352 10.668C47.0163 10.6727 46.9928 10.6774 46.974 10.6869C46.9693 10.6869 46.9646 10.6869 46.9599 10.6869C46.2915 10.871 45.6279 11.0646 44.9784 11.2582C44.969 11.2582 44.9596 11.263 44.9502 11.2677C44.9361 11.2677 44.9219 11.2771 44.9031 11.2818C44.5878 11.3763 44.2772 11.4754 43.9665 11.5699C43.9524 11.5699 43.943 11.5793 43.9289 11.5841C43.9053 11.5935 43.8818 11.5982 43.8583 11.6077C43.2417 11.8013 42.6393 11.9996 42.051 12.1979C42.0321 12.2027 42.0133 12.2121 41.9898 12.2168C41.9615 12.2263 41.9333 12.2357 41.9051 12.2452C41.6227 12.3443 41.3403 12.4388 41.0626 12.5379C41.0297 12.5474 41.0014 12.5615 40.9685 12.571C40.7143 12.6607 40.4602 12.7551 40.2107 12.8449C40.1778 12.859 40.1401 12.8685 40.1072 12.8826C40.1025 12.8826 40.0931 12.8826 40.0884 12.8874C39.8295 12.9818 39.5706 13.081 39.3212 13.1801C39.3024 13.1896 39.2836 13.1943 39.2647 13.2037C39.2318 13.2179 39.1988 13.2274 39.1659 13.2415C38.9117 13.3407 38.6576 13.4399 38.4128 13.539H38.4034C38.1634 13.6382 37.9093 13.7373 37.6457 13.8412C37.6457 13.8412 37.6457 13.8412 37.641 13.8412C37.6222 13.846 37.608 13.8554 37.5892 13.8601L36.5914 14.2521L36.6103 14.2851Z" fill="#FFD600"/>
<path d="M37.5892 13.9026C37.881 13.7846 38.1634 13.6712 38.4317 13.5626C42.8182 11.7871 48.7813 10.0069 54.5232 8.97744C49.3273 3.95309 42.8088 0.888428 36.6103 0.888428C30.4118 0.888428 23.8933 3.94837 18.6926 8.97744C24.4346 10.0069 30.4024 11.7871 34.7889 13.5626C35.3442 13.7893 35.9561 14.0301 36.6103 14.2851C36.7562 14.2285 36.8927 14.1765 37.0339 14.1198L37.5892 13.9026Z" fill="#8CC542"/>
</g>
<defs>
<clipPath id="clip0_3098_16561">
<rect width="201" height="31" fill="white"/>
</clipPath>
</defs>
</svg>
